NotoSansPahawhHmong-Regular.ufo
<glyph name="u16B02" format="2">
  <advance width="682"/>
  <unicode hex="16B02"/>
  <outline>
    <contour>
      <point x="525" y="-11" type="curve" smooth="yes"/>
      <point x="593" y="-11"/>
      <point x="652" y="42"/>
      <point x="652" y="111" type="curve" smooth="yes"/>
      <point x="652" y="180"/>
      <point x="593" y="234"/>
      <point x="525" y="234" type="curve" smooth="yes"/>
      <point x="498" y="234"/>
      <point x="473" y="225"/>
      <point x="452" y="210" type="curve"/>
      <point x="311" y="714" type="line"/>
      <point x="221" y="714" type="line"/>
      <point x="10" y="0" type="line"/>
      <point x="104" y="0" type="line"/>
      <point x="264" y="594" type="line"/>
      <point x="374" y="164" type="line" smooth="yes"/>
      <point x="395" y="81"/>
      <point x="423" y="-11"/>
    </contour>
    <contour>
      <point x="525" y="59" type="curve" smooth="yes"/>
      <point x="495" y="59"/>
      <point x="473" y="80"/>
      <point x="473" y="111" type="curve" smooth="yes"/>
      <point x="473" y="142"/>
      <point x="495" y="164"/>
      <point x="525" y="164" type="curve" smooth="yes"/>
      <point x="555" y="164"/>
      <point x="578" y="142"/>
      <point x="578" y="111" type="curve" smooth="yes"/>
      <point x="578" y="79"/>
      <point x="555" y="59"/>
    </contour>
  </outline>
</glyph>
<glyph name="u16B08" format="2">
  <advance width="710"/>
  <unicode hex="16B08"/>
  <outline>
    <contour>
      <point x="348" y="-11" type="curve" smooth="yes"/>
      <point x="526" y="-11"/>
      <point x="610" y="66"/>
      <point x="610" y="225" type="curve" smooth="yes"/>
      <point x="610" y="714" type="line"/>
      <point x="520" y="714" type="line"/>
      <point x="520" y="230" type="line" smooth="yes"/>
      <point x="520" y="114"/>
      <point x="468" y="71"/>
      <point x="343" y="71" type="curve" smooth="yes"/>
      <point x="214" y="71"/>
      <point x="170" y="123"/>
      <point x="170" y="231" type="curve" smooth="yes"/>
      <point x="170" y="491" type="line"/>
      <point x="186" y="484"/>
      <point x="203" y="480"/>
      <point x="222" y="480" type="curve" smooth="yes"/>
      <point x="290" y="480"/>
      <point x="349" y="534"/>
      <point x="349" y="603" type="curve" smooth="yes"/>
      <point x="349" y="672"/>
      <point x="290" y="725"/>
      <point x="222" y="725" type="curve" smooth="yes"/>
      <point x="105" y="725"/>
      <point x="80" y="620"/>
      <point x="80" y="564" type="curve" smooth="yes"/>
      <point x="80" y="223" type="line" smooth="yes"/>
      <point x="80" y="75"/>
      <point x="159" y="-11"/>
    </contour>
    <contour>
      <point x="222" y="550" type="curve" smooth="yes"/>
      <point x="192" y="550"/>
      <point x="170" y="572"/>
      <point x="170" y="603" type="curve" smooth="yes"/>
      <point x="170" y="634"/>
      <point x="192" y="655"/>
      <point x="222" y="655" type="curve" smooth="yes"/>
      <point x="252" y="655"/>
      <point x="275" y="635"/>
      <point x="275" y="603" type="curve" smooth="yes"/>
      <point x="275" y="572"/>
      <point x="252" y="550"/>
    </contour>
  </outline>
</glyph>
<glyph name="u16B09" format="2">
  <advance width="693"/>
  <unicode hex="16B09"/>
  <outline>
    <contour>
      <point x="471" y="-11" type="curve" smooth="yes"/>
      <point x="588" y="-11"/>
      <point x="613" y="94"/>
      <point x="613" y="150" type="curve" smooth="yes"/>
      <point x="613" y="714" type="line"/>
      <point x="523" y="714" type="line"/>
      <point x="523" y="422" type="line"/>
      <point x="180" y="422" type="line"/>
      <point x="180" y="714" type="line"/>
      <point x="90" y="714" type="line"/>
      <point x="90" y="0" type="line"/>
      <point x="180" y="0" type="line"/>
      <point x="180" y="342" type="line"/>
      <point x="523" y="342" type="line"/>
      <point x="523" y="223" type="line"/>
      <point x="507" y="230"/>
      <point x="490" y="234"/>
      <point x="471" y="234" type="curve" smooth="yes"/>
      <point x="403" y="234"/>
      <point x="344" y="180"/>
      <point x="344" y="111" type="curve" smooth="yes"/>
      <point x="344" y="42"/>
      <point x="403" y="-11"/>
    </contour>
    <contour>
      <point x="471" y="59" type="curve" smooth="yes"/>
      <point x="441" y="59"/>
      <point x="418" y="79"/>
      <point x="418" y="111" type="curve" smooth="yes"/>
      <point x="418" y="142"/>
      <point x="441" y="164"/>
      <point x="471" y="164" type="curve" smooth="yes"/>
      <point x="501" y="164"/>
      <point x="523" y="142"/>
      <point x="523" y="111" type="curve" smooth="yes"/>
      <point x="523" y="80"/>
      <point x="501" y="59"/>
    </contour>
  </outline>
</glyph>
<glyph name="u16B0A" format="2">
  <advance width="680"/>
  <unicode hex="16B0A"/>
  <outline>
    <contour>
      <point x="110" y="0" type="line"/>
      <point x="200" y="0" type="line"/>
      <point x="195" y="78" type="line"/>
      <point x="200" y="168"/>
      <point x="252" y="229"/>
      <point x="342" y="229" type="curve" smooth="yes"/>
      <point x="430" y="229"/>
      <point x="479" y="160"/>
      <point x="484" y="78" type="curve"/>
      <point x="480" y="0" type="line"/>
      <point x="570" y="0" type="line"/>
      <point x="610" y="714" type="line"/>
      <point x="520" y="714" type="line"/>
      <point x="493" y="242" type="line"/>
      <point x="460" y="285"/>
      <point x="409" y="311"/>
      <point x="337" y="311" type="curve" smooth="yes"/>
      <point x="268" y="311"/>
      <point x="218" y="288"/>
      <point x="186" y="246" type="curve"/>
      <point x="160" y="714" type="line"/>
      <point x="70" y="714" type="line"/>
    </contour>
  </outline>
</glyph>
<glyph name="u16B0B" format="2">
  <advance width="810"/>
  <unicode hex="16B0B"/>
  <outline>
    <contour>
      <point x="267" y="-10" type="curve" smooth="yes"/>
      <point x="436" y="-10"/>
      <point x="460" y="84"/>
      <point x="460" y="232" type="curve" smooth="yes"/>
      <point x="460" y="547" type="line"/>
      <point x="503" y="585"/>
      <point x="544" y="643"/>
      <point x="584" y="643" type="curve" smooth="yes"/>
      <point x="628" y="643"/>
      <point x="640" y="580"/>
      <point x="640" y="533" type="curve" smooth="yes"/>
      <point x="640" y="0" type="line"/>
      <point x="730" y="0" type="line"/>
      <point x="730" y="533" type="line" smooth="yes"/>
      <point x="730" y="620"/>
      <point x="703" y="725"/>
      <point x="588" y="725" type="curve" smooth="yes"/>
      <point x="528" y="725"/>
      <point x="486" y="675"/>
      <point x="450" y="633" type="curve"/>
      <point x="432" y="693"/>
      <point x="390" y="725"/>
      <point x="329" y="725" type="curve" smooth="yes"/>
      <point x="269" y="725"/>
      <point x="212" y="682"/>
      <point x="212" y="613" type="curve" smooth="yes"/>
      <point x="212" y="544"/>
      <point x="267" y="499"/>
      <point x="332" y="499" type="curve" smooth="yes"/>
      <point x="347" y="499"/>
      <point x="359" y="500"/>
      <point x="370" y="502" type="curve"/>
      <point x="370" y="232" type="line" smooth="yes"/>
      <point x="370" y="144"/>
      <point x="365" y="72"/>
      <point x="272" y="72" type="curve" smooth="yes"/>
      <point x="177" y="72"/>
      <point x="170" y="135"/>
      <point x="170" y="233" type="curve" smooth="yes"/>
      <point x="170" y="714" type="line"/>
      <point x="80" y="714" type="line"/>
      <point x="80" y="234" type="line" smooth="yes"/>
      <point x="80" y="75"/>
      <point x="109" y="-10"/>
    </contour>
    <contour>
      <point x="328" y="565" type="curve" smooth="yes"/>
      <point x="303" y="565"/>
      <point x="282" y="586"/>
      <point x="282" y="611" type="curve" smooth="yes"/>
      <point x="282" y="636"/>
      <point x="303" y="658"/>
      <point x="328" y="658" type="curve" smooth="yes"/>
      <point x="353" y="658"/>
      <point x="375" y="636"/>
      <point x="375" y="611" type="curve" smooth="yes"/>
      <point x="375" y="586"/>
      <point x="353" y="565"/>
    </contour>
  </outline>
</glyph>
<glyph name="u16B0D" format="2">
  <advance width="750"/>
  <unicode hex="16B0D"/>
  <outline>
    <contour>
      <point x="240" y="-10" type="curve" smooth="yes"/>
      <point x="296" y="-10"/>
      <point x="343" y="22"/>
      <point x="375" y="70" type="curve"/>
      <point x="407" y="22"/>
      <point x="454" y="-10"/>
      <point x="510" y="-10" type="curve" smooth="yes"/>
      <point x="632" y="-10"/>
      <point x="670" y="84"/>
      <point x="670" y="232" type="curve" smooth="yes"/>
      <point x="670" y="714" type="line"/>
      <point x="580" y="714" type="line"/>
      <point x="580" y="232" type="line" smooth="yes"/>
      <point x="580" y="124"/>
      <point x="561" y="72"/>
      <point x="507" y="72" type="curve" smooth="yes"/>
      <point x="449" y="72"/>
      <point x="420" y="125"/>
      <point x="420" y="232" type="curve" smooth="yes"/>
      <point x="420" y="374" type="line"/>
      <point x="330" y="374" type="line"/>
      <point x="330" y="230" type="line" smooth="yes"/>
      <point x="330" y="124"/>
      <point x="300" y="72"/>
      <point x="243" y="72" type="curve" smooth="yes"/>
      <point x="189" y="72"/>
      <point x="170" y="124"/>
      <point x="170" y="232" type="curve" smooth="yes"/>
      <point x="170" y="491" type="line"/>
      <point x="186" y="484"/>
      <point x="203" y="480"/>
      <point x="222" y="480" type="curve" smooth="yes"/>
      <point x="290" y="480"/>
      <point x="349" y="534"/>
      <point x="349" y="603" type="curve" smooth="yes"/>
      <point x="349" y="672"/>
      <point x="290" y="725"/>
      <point x="222" y="725" type="curve" smooth="yes"/>
      <point x="105" y="725"/>
      <point x="80" y="620"/>
      <point x="80" y="564" type="curve" smooth="yes"/>
      <point x="80" y="232" type="line" smooth="yes"/>
      <point x="80" y="84"/>
      <point x="118" y="-10"/>
    </contour>
    <contour>
      <point x="222" y="550" type="curve" smooth="yes"/>
      <point x="192" y="550"/>
      <point x="170" y="572"/>
      <point x="170" y="603" type="curve" smooth="yes"/>
      <point x="170" y="634"/>
      <point x="192" y="655"/>
      <point x="222" y="655" type="curve" smooth="yes"/>
      <point x="252" y="655"/>
      <point x="275" y="635"/>
      <point x="275" y="603" type="curve" smooth="yes"/>
      <point x="275" y="572"/>
      <point x="252" y="550"/>
    </contour>
  </outline>
</glyph>
<glyph name="u16B0E" format="2">
  <advance width="709"/>
  <unicode hex="16B0E"/>
  <outline>
    <contour>
      <point x="552" y="-11" type="curve" smooth="yes"/>
      <point x="620" y="-11"/>
      <point x="679" y="42"/>
      <point x="679" y="111" type="curve" smooth="yes"/>
      <point x="679" y="180"/>
      <point x="620" y="234"/>
      <point x="552" y="234" type="curve" smooth="yes"/>
      <point x="533" y="234"/>
      <point x="516" y="230"/>
      <point x="500" y="223" type="curve"/>
      <point x="500" y="634" type="line"/>
      <point x="585" y="634" type="line"/>
      <point x="585" y="714" type="line"/>
      <point x="90" y="714" type="line"/>
      <point x="90" y="0" type="line"/>
      <point x="180" y="0" type="line"/>
      <point x="180" y="634" type="line"/>
      <point x="410" y="634" type="line"/>
      <point x="410" y="150" type="line" smooth="yes"/>
      <point x="410" y="94"/>
      <point x="435" y="-11"/>
    </contour>
    <contour>
      <point x="552" y="59" type="curve" smooth="yes"/>
      <point x="522" y="59"/>
      <point x="500" y="80"/>
      <point x="500" y="111" type="curve" smooth="yes"/>
      <point x="500" y="142"/>
      <point x="522" y="164"/>
      <point x="552" y="164" type="curve" smooth="yes"/>
      <point x="582" y="164"/>
      <point x="605" y="142"/>
      <point x="605" y="111" type="curve" smooth="yes"/>
      <point x="605" y="79"/>
      <point x="582" y="59"/>
    </contour>
  </outline>
</glyph>
<glyph name="u16B0F" format="2">
  <advance width="750"/>
  <unicode hex="16B0F"/>
  <outline>
    <contour>
      <point x="240" y="-10" type="curve" smooth="yes"/>
      <point x="296" y="-10"/>
      <point x="343" y="22"/>
      <point x="375" y="70" type="curve"/>
      <point x="407" y="22"/>
      <point x="454" y="-10"/>
      <point x="510" y="-10" type="curve" smooth="yes"/>
      <point x="632" y="-10"/>
      <point x="670" y="84"/>
      <point x="670" y="232" type="curve" smooth="yes"/>
      <point x="670" y="564" type="line" smooth="yes"/>
      <point x="670" y="620"/>
      <point x="645" y="725"/>
      <point x="528" y="725" type="curve" smooth="yes"/>
      <point x="460" y="725"/>
      <point x="401" y="672"/>
      <point x="401" y="603" type="curve" smooth="yes"/>
      <point x="401" y="534"/>
      <point x="460" y="480"/>
      <point x="528" y="480" type="curve" smooth="yes"/>
      <point x="547" y="480"/>
      <point x="564" y="484"/>
      <point x="580" y="491" type="curve"/>
      <point x="580" y="232" type="line" smooth="yes"/>
      <point x="580" y="124"/>
      <point x="561" y="72"/>
      <point x="507" y="72" type="curve" smooth="yes"/>
      <point x="450" y="72"/>
      <point x="420" y="124"/>
      <point x="420" y="230" type="curve" smooth="yes"/>
      <point x="420" y="374" type="line"/>
      <point x="330" y="374" type="line"/>
      <point x="330" y="232" type="line" smooth="yes"/>
      <point x="330" y="125"/>
      <point x="301" y="72"/>
      <point x="243" y="72" type="curve" smooth="yes"/>
      <point x="189" y="72"/>
      <point x="170" y="124"/>
      <point x="170" y="232" type="curve" smooth="yes"/>
      <point x="170" y="714" type="line"/>
      <point x="80" y="714" type="line"/>
      <point x="80" y="232" type="line" smooth="yes"/>
      <point x="80" y="84"/>
      <point x="118" y="-10"/>
    </contour>
    <contour>
      <point x="528" y="550" type="curve" smooth="yes"/>
      <point x="498" y="550"/>
      <point x="475" y="572"/>
      <point x="475" y="603" type="curve" smooth="yes"/>
      <point x="475" y="635"/>
      <point x="498" y="655"/>
      <point x="528" y="655" type="curve" smooth="yes"/>
      <point x="558" y="655"/>
      <point x="580" y="634"/>
      <point x="580" y="603" type="curve" smooth="yes"/>
      <point x="580" y="572"/>
      <point x="558" y="550"/>
    </contour>
  </outline>
</glyph>
<glyph name="u16B11" format="2">
  <advance width="750"/>
  <unicode hex="16B11"/>
  <outline>
    <contour>
      <point x="240" y="-11" type="curve" smooth="yes"/>
      <point x="296" y="-11"/>
      <point x="343" y="21"/>
      <point x="375" y="69" type="curve"/>
      <point x="407" y="21"/>
      <point x="454" y="-11"/>
      <point x="510" y="-11" type="curve" smooth="yes"/>
      <point x="632" y="-11"/>
      <point x="670" y="83"/>
      <point x="670" y="231" type="curve" smooth="yes"/>
      <point x="670" y="714" type="line"/>
      <point x="580" y="714" type="line"/>
      <point x="580" y="231" type="line" smooth="yes"/>
      <point x="580" y="123"/>
      <point x="561" y="71"/>
      <point x="507" y="71" type="curve" smooth="yes"/>
      <point x="450" y="71"/>
      <point x="420" y="123"/>
      <point x="420" y="229" type="curve" smooth="yes"/>
      <point x="420" y="714" type="line"/>
      <point x="330" y="714" type="line"/>
      <point x="330" y="231" type="line" smooth="yes"/>
      <point x="330" y="124"/>
      <point x="301" y="71"/>
      <point x="243" y="71" type="curve" smooth="yes"/>
      <point x="189" y="71"/>
      <point x="170" y="123"/>
      <point x="170" y="231" type="curve" smooth="yes"/>
      <point x="170" y="714" type="line"/>
      <point x="80" y="714" type="line"/>
      <point x="80" y="231" type="line" smooth="yes"/>
      <point x="80" y="83"/>
      <point x="118" y="-11"/>
    </contour>
  </outline>
</glyph>
<glyph name="u16B12" format="2">
  <advance width="747"/>
  <unicode hex="16B12"/>
  <outline>
    <contour>
      <point x="227" y="-11" type="curve" smooth="yes"/>
      <point x="366" y="-11"/>
      <point x="380" y="90"/>
      <point x="380" y="238" type="curve" smooth="yes"/>
      <point x="380" y="634" type="line"/>
      <point x="497" y="634" type="line" smooth="yes"/>
      <point x="554" y="634"/>
      <point x="577" y="594"/>
      <point x="577" y="540" type="curve" smooth="yes"/>
      <point x="577" y="0" type="line"/>
      <point x="667" y="0" type="line"/>
      <point x="667" y="555" type="line" smooth="yes"/>
      <point x="667" y="645"/>
      <point x="614" y="714"/>
      <point x="510" y="714" type="curve" smooth="yes"/>
      <point x="250" y="714" type="line" smooth="yes"/>
      <point x="106" y="714"/>
      <point x="80" y="601"/>
      <point x="80" y="450" type="curve" smooth="yes"/>
      <point x="80" y="240" type="line" smooth="yes"/>
      <point x="80" y="81"/>
      <point x="99" y="-11"/>
    </contour>
    <contour>
      <point x="232" y="71" type="curve" smooth="yes"/>
      <point x="177" y="71"/>
      <point x="170" y="121"/>
      <point x="170" y="237" type="curve" smooth="yes"/>
      <point x="170" y="453" type="line" smooth="yes"/>
      <point x="170" y="569"/>
      <point x="177" y="634"/>
      <point x="262" y="634" type="curve" smooth="yes"/>
      <point x="290" y="634" type="line"/>
      <point x="290" y="238" type="line" smooth="yes"/>
      <point x="290" y="130"/>
      <point x="281" y="71"/>
    </contour>
  </outline>
</glyph>
<glyph name="u16B14" format="2">
  <advance width="727"/>
  <unicode hex="16B14"/>
  <outline>
    <contour>
      <point x="161" y="-16" type="line"/>
      <point x="188" y="29"/>
      <point x="218" y="57"/>
      <point x="249" y="57" type="curve" smooth="yes"/>
      <point x="327" y="57"/>
      <point x="374" y="-12"/>
      <point x="476" y="-12" type="curve" smooth="yes"/>
      <point x="603" y="-12"/>
      <point x="647" y="69"/>
      <point x="647" y="202" type="curve" smooth="yes"/>
      <point x="647" y="714" type="line"/>
      <point x="557" y="714" type="line"/>
      <point x="557" y="199" type="line" smooth="yes"/>
      <point x="557" y="102"/>
      <point x="525" y="71"/>
      <point x="479" y="71" type="curve" smooth="yes"/>
      <point x="414" y="71"/>
      <point x="318" y="140"/>
      <point x="252" y="140" type="curve" smooth="yes"/>
      <point x="225" y="140"/>
      <point x="201" y="132"/>
      <point x="180" y="120" type="curve"/>
      <point x="180" y="714" type="line"/>
      <point x="90" y="714" type="line"/>
      <point x="90" y="13" type="line"/>
    </contour>
  </outline>
</glyph>
<glyph name="u16B15" format="2">
  <advance width="630"/>
  <unicode hex="16B15"/>
  <outline>
    <contour>
      <point x="164" y="-11" type="curve" smooth="yes"/>
      <point x="232" y="-11"/>
      <point x="290" y="43"/>
      <point x="290" y="112" type="curve" smooth="yes"/>
      <point x="290" y="181"/>
      <point x="232" y="234"/>
      <point x="164" y="234" type="curve" smooth="yes"/>
      <point x="158" y="234"/>
      <point x="152" y="233"/>
      <point x="146" y="232" type="curve"/>
      <point x="304" y="601" type="line"/>
      <point x="506" y="0" type="line"/>
      <point x="600" y="0" type="line"/>
      <point x="349" y="714" type="line"/>
      <point x="268" y="714" type="line"/>
      <point x="49" y="207" type="line" smooth="yes"/>
      <point x="36" y="177"/>
      <point x="30" y="149"/>
      <point x="30" y="123" type="curve" smooth="yes"/>
      <point x="30" y="45"/>
      <point x="83" y="-11"/>
    </contour>
    <contour>
      <point x="164" y="59" type="curve" smooth="yes"/>
      <point x="134" y="59"/>
      <point x="111" y="81"/>
      <point x="111" y="112" type="curve" smooth="yes"/>
      <point x="111" y="144"/>
      <point x="134" y="164"/>
      <point x="164" y="164" type="curve" smooth="yes"/>
      <point x="194" y="164"/>
      <point x="216" y="143"/>
      <point x="216" y="112" type="curve" smooth="yes"/>
      <point x="216" y="81"/>
      <point x="194" y="59"/>
    </contour>
  </outline>
</glyph>
<glyph name="u16B18" format="2">
  <advance width="567"/>
  <unicode hex="16B18"/>
  <outline>
    <contour>
      <point x="329" y="-11" type="curve" smooth="yes"/>
      <point x="467" y="-11"/>
      <point x="512" y="78"/>
      <point x="512" y="161" type="curve" smooth="yes"/>
      <point x="512" y="170" type="line"/>
      <point x="422" y="170" type="line"/>
      <point x="422" y="162" type="line" smooth="yes"/>
      <point x="422" y="131"/>
      <point x="410" y="71"/>
      <point x="329" y="71" type="curve" smooth="yes"/>
      <point x="234" y="71"/>
      <point x="232" y="146"/>
      <point x="232" y="244" type="curve" smooth="yes"/>
      <point x="232" y="634" type="line"/>
      <point x="527" y="634" type="line"/>
      <point x="527" y="714" type="line"/>
      <point x="20" y="714" type="line"/>
      <point x="20" y="634" type="line"/>
      <point x="142" y="634" type="line"/>
      <point x="142" y="243" type="line" smooth="yes"/>
      <point x="142" y="84"/>
      <point x="170" y="-11"/>
    </contour>
  </outline>
</glyph>
<glyph name="u16B19" format="2">
  <advance width="714"/>
  <unicode hex="16B19"/>
  <outline>
    <contour>
      <point x="180" y="-11" type="curve" smooth="yes"/>
      <point x="272" y="-11"/>
      <point x="330" y="43"/>
      <point x="330" y="160" type="curve" smooth="yes"/>
      <point x="330" y="564" type="line"/>
      <point x="534" y="564" type="line"/>
      <point x="534" y="0" type="line"/>
      <point x="624" y="0" type="line"/>
      <point x="624" y="714" type="line"/>
      <point x="534" y="714" type="line"/>
      <point x="534" y="644" type="line"/>
      <point x="89" y="644" type="line"/>
      <point x="89" y="564" type="line"/>
      <point x="240" y="564" type="line"/>
      <point x="240" y="165" type="line" smooth="yes"/>
      <point x="240" y="102"/>
      <point x="220" y="71"/>
      <point x="185" y="71" type="curve" smooth="yes"/>
      <point x="150" y="71"/>
      <point x="130" y="102"/>
      <point x="130" y="165" type="curve" smooth="yes"/>
      <point x="130" y="170" type="line"/>
      <point x="40" y="170" type="line"/>
      <point x="40" y="157" type="line" smooth="yes"/>
      <point x="40" y="49"/>
      <point x="99" y="-11"/>
    </contour>
  </outline>
</glyph>
<glyph name="u16B1C" format="2">
  <advance width="599"/>
  <unicode hex="16B1C"/>
  <outline>
    <contour>
      <point x="237" y="0" type="curve" smooth="yes"/>
      <point x="354" y="0" type="line" smooth="yes"/>
      <point x="458" y="0"/>
      <point x="511" y="69"/>
      <point x="511" y="159" type="curve" smooth="yes"/>
      <point x="511" y="215" type="line"/>
      <point x="421" y="215" type="line"/>
      <point x="421" y="174" type="line" smooth="yes"/>
      <point x="421" y="120"/>
      <point x="398" y="80"/>
      <point x="341" y="80" type="curve" smooth="yes"/>
      <point x="250" y="80" type="line" smooth="yes"/>
      <point x="193" y="80"/>
      <point x="170" y="120"/>
      <point x="170" y="174" type="curve" smooth="yes"/>
      <point x="170" y="540" type="line" smooth="yes"/>
      <point x="170" y="594"/>
      <point x="193" y="634"/>
      <point x="250" y="634" type="curve" smooth="yes"/>
      <point x="341" y="634" type="line" smooth="yes"/>
      <point x="394" y="634"/>
      <point x="418" y="599"/>
      <point x="421" y="550" type="curve"/>
      <point x="349" y="550" type="line"/>
      <point x="349" y="480" type="line"/>
      <point x="569" y="480" type="line"/>
      <point x="569" y="550" type="line"/>
      <point x="511" y="550" type="line"/>
      <point x="511" y="555" type="line" smooth="yes"/>
      <point x="511" y="645"/>
      <point x="458" y="714"/>
      <point x="354" y="714" type="curve" smooth="yes"/>
      <point x="237" y="714" type="line" smooth="yes"/>
      <point x="133" y="714"/>
      <point x="80" y="645"/>
      <point x="80" y="555" type="curve" smooth="yes"/>
      <point x="80" y="159" type="line" smooth="yes"/>
      <point x="80" y="69"/>
      <point x="133" y="0"/>
    </contour>
  </outline>
</glyph>
<glyph name="u16B1D" format="2">
  <advance width="622"/>
  <unicode hex="16B1D"/>
  <outline>
    <contour>
      <point x="90" y="0" type="line"/>
      <point x="180" y="0" type="line"/>
      <point x="180" y="134" type="line"/>
      <point x="328" y="338" type="line"/>
      <point x="512" y="0" type="line"/>
      <point x="612" y="0" type="line"/>
      <point x="384" y="416" type="line"/>
      <point x="601" y="714" type="line"/>
      <point x="501" y="714" type="line"/>
      <point x="180" y="262" type="line"/>
      <point x="180" y="714" type="line"/>
      <point x="90" y="714" type="line"/>
    </contour>
  </outline>
</glyph>
<glyph name="u16B1E" format="2">
  <advance width="765"/>
  <unicode hex="16B1E"/>
  <outline>
    <contour>
      <point x="90" y="0" type="line"/>
      <point x="405" y="0" type="line"/>
      <point x="405" y="482" type="line" smooth="yes"/>
      <point x="405" y="580"/>
      <point x="407" y="643"/>
      <point x="502" y="643" type="curve" smooth="yes"/>
      <point x="595" y="643"/>
      <point x="595" y="571"/>
      <point x="595" y="483" type="curve" smooth="yes"/>
      <point x="595" y="0" type="line"/>
      <point x="685" y="0" type="line"/>
      <point x="685" y="483" type="line" smooth="yes"/>
      <point x="685" y="631"/>
      <point x="656" y="725"/>
      <point x="497" y="725" type="curve" smooth="yes"/>
      <point x="343" y="725"/>
      <point x="315" y="640"/>
      <point x="315" y="481" type="curve" smooth="yes"/>
      <point x="315" y="80" type="line"/>
      <point x="180" y="80" type="line"/>
      <point x="180" y="714" type="line"/>
      <point x="90" y="714" type="line"/>
    </contour>
  </outline>
</glyph>
<glyph name="u16B1F" format="2">
  <advance width="779"/>
  <unicode hex="16B1F"/>
  <outline>
    <contour>
      <point x="90" y="0" type="line"/>
      <point x="180" y="0" type="line"/>
      <point x="180" y="634" type="line"/>
      <point x="364" y="634" type="line"/>
      <point x="364" y="0" type="line"/>
      <point x="454" y="0" type="line"/>
      <point x="454" y="634" type="line"/>
      <point x="504" y="634" type="line"/>
      <point x="499" y="620"/>
      <point x="496" y="606"/>
      <point x="496" y="591" type="curve" smooth="yes"/>
      <point x="496" y="522"/>
      <point x="554" y="469"/>
      <point x="622" y="469" type="curve" smooth="yes"/>
      <point x="690" y="469"/>
      <point x="749" y="522"/>
      <point x="749" y="591" type="curve" smooth="yes"/>
      <point x="749" y="660"/>
      <point x="690" y="714"/>
      <point x="622" y="714" type="curve" smooth="yes"/>
      <point x="90" y="714" type="line"/>
    </contour>
    <contour>
      <point x="622" y="539" type="curve" smooth="yes"/>
      <point x="592" y="539"/>
      <point x="570" y="560"/>
      <point x="570" y="591" type="curve" smooth="yes"/>
      <point x="570" y="622"/>
      <point x="592" y="644"/>
      <point x="622" y="644" type="curve" smooth="yes"/>
      <point x="652" y="644"/>
      <point x="675" y="622"/>
      <point x="675" y="591" type="curve" smooth="yes"/>
      <point x="675" y="559"/>
      <point x="652" y="539"/>
    </contour>
  </outline>
</glyph>
<glyph name="u16B22" format="2">
  <advance width="659"/>
  <unicode hex="16B22"/>
  <outline>
    <contour>
      <point x="90" y="0" type="line"/>
      <point x="180" y="0" type="line"/>
      <point x="180" y="469" type="line"/>
      <point x="193" y="545"/>
      <point x="305" y="643"/>
      <point x="407" y="643" type="curve" smooth="yes"/>
      <point x="477" y="643"/>
      <point x="489" y="602"/>
      <point x="489" y="514" type="curve" smooth="yes"/>
      <point x="489" y="0" type="line"/>
      <point x="579" y="0" type="line"/>
      <point x="579" y="511" type="line" smooth="yes"/>
      <point x="579" y="644"/>
      <point x="545" y="725"/>
      <point x="418" y="725" type="curve" smooth="yes"/>
      <point x="310" y="725"/>
      <point x="229" y="664"/>
      <point x="180" y="608" type="curve"/>
      <point x="180" y="714" type="line"/>
      <point x="90" y="714" type="line"/>
    </contour>
  </outline>
</glyph>
<glyph name="u16B23" format="2">
  <advance width="625"/>
  <unicode hex="16B23"/>
  <outline>
    <contour>
      <point x="90" y="0" type="line"/>
      <point x="555" y="0" type="line"/>
      <point x="555" y="80" type="line"/>
      <point x="180" y="80" type="line"/>
      <point x="180" y="334" type="line"/>
      <point x="555" y="334" type="line"/>
      <point x="555" y="414" type="line"/>
      <point x="180" y="414" type="line"/>
      <point x="180" y="634" type="line"/>
      <point x="555" y="634" type="line"/>
      <point x="555" y="714" type="line"/>
      <point x="90" y="714" type="line"/>
    </contour>
  </outline>
</glyph>
<glyph name="u16B24" format="2">
  <advance width="879"/>
  <unicode hex="16B24"/>
  <outline>
    <contour>
      <point x="240" y="-11" type="curve" smooth="yes"/>
      <point x="296" y="-11"/>
      <point x="343" y="21"/>
      <point x="375" y="69" type="curve"/>
      <point x="407" y="21"/>
      <point x="454" y="-11"/>
      <point x="510" y="-11" type="curve" smooth="yes"/>
      <point x="632" y="-11"/>
      <point x="670" y="83"/>
      <point x="670" y="231" type="curve" smooth="yes"/>
      <point x="670" y="491" type="line"/>
      <point x="686" y="484"/>
      <point x="703" y="480"/>
      <point x="722" y="480" type="curve" smooth="yes"/>
      <point x="790" y="480"/>
      <point x="849" y="534"/>
      <point x="849" y="603" type="curve" smooth="yes"/>
      <point x="849" y="672"/>
      <point x="790" y="725"/>
      <point x="722" y="725" type="curve" smooth="yes"/>
      <point x="605" y="725"/>
      <point x="580" y="620"/>
      <point x="580" y="564" type="curve" smooth="yes"/>
      <point x="580" y="231" type="line" smooth="yes"/>
      <point x="580" y="123"/>
      <point x="561" y="71"/>
      <point x="507" y="71" type="curve" smooth="yes"/>
      <point x="450" y="71"/>
      <point x="420" y="123"/>
      <point x="420" y="229" type="curve" smooth="yes"/>
      <point x="420" y="714" type="line"/>
      <point x="330" y="714" type="line"/>
      <point x="330" y="231" type="line" smooth="yes"/>
      <point x="330" y="124"/>
      <point x="301" y="71"/>
      <point x="243" y="71" type="curve" smooth="yes"/>
      <point x="189" y="71"/>
      <point x="170" y="123"/>
      <point x="170" y="231" type="curve" smooth="yes"/>
      <point x="170" y="714" type="line"/>
      <point x="80" y="714" type="line"/>
      <point x="80" y="231" type="line" smooth="yes"/>
      <point x="80" y="83"/>
      <point x="118" y="-11"/>
    </contour>
    <contour>
      <point x="722" y="550" type="curve" smooth="yes"/>
      <point x="692" y="550"/>
      <point x="670" y="572"/>
      <point x="670" y="603" type="curve" smooth="yes"/>
      <point x="670" y="634"/>
      <point x="692" y="655"/>
      <point x="722" y="655" type="curve" smooth="yes"/>
      <point x="752" y="655"/>
      <point x="775" y="635"/>
      <point x="775" y="603" type="curve" smooth="yes"/>
      <point x="775" y="572"/>
      <point x="752" y="550"/>
    </contour>
  </outline>
</glyph>
<glyph name="u16B26" format="2">
  <advance width="688"/>
  <unicode hex="16B26"/>
  <outline>
    <contour>
      <point x="80" y="0" type="line"/>
      <point x="170" y="0" type="line"/>
      <point x="170" y="533" type="line" smooth="yes"/>
      <point x="170" y="580"/>
      <point x="182" y="643"/>
      <point x="247" y="643" type="curve" smooth="yes"/>
      <point x="300" y="643"/>
      <point x="358" y="581"/>
      <point x="410" y="544" type="curve"/>
      <point x="410" y="0" type="line"/>
      <point x="500" y="0" type="line"/>
      <point x="500" y="502" type="line"/>
      <point x="511" y="500"/>
      <point x="523" y="499"/>
      <point x="538" y="499" type="curve" smooth="yes"/>
      <point x="603" y="499"/>
      <point x="658" y="544"/>
      <point x="658" y="613" type="curve" smooth="yes"/>
      <point x="658" y="682"/>
      <point x="601" y="725"/>
      <point x="541" y="725" type="curve" smooth="yes"/>
      <point x="477" y="725"/>
      <point x="434" y="690"/>
      <point x="417" y="626" type="curve"/>
      <point x="369" y="667"/>
      <point x="312" y="725"/>
      <point x="241" y="725" type="curve" smooth="yes"/>
      <point x="107" y="725"/>
      <point x="80" y="620"/>
      <point x="80" y="533" type="curve" smooth="yes"/>
    </contour>
    <contour>
      <point x="542" y="565" type="curve" smooth="yes"/>
      <point x="517" y="565"/>
      <point x="495" y="586"/>
      <point x="495" y="611" type="curve" smooth="yes"/>
      <point x="495" y="636"/>
      <point x="517" y="658"/>
      <point x="542" y="658" type="curve" smooth="yes"/>
      <point x="567" y="658"/>
      <point x="588" y="636"/>
      <point x="588" y="611" type="curve" smooth="yes"/>
      <point x="588" y="586"/>
      <point x="567" y="565"/>
    </contour>
  </outline>
</glyph>
<glyph name="u16B27" format="2">
  <advance width="794"/>
  <unicode hex="16B27"/>
  <outline>
    <contour>
      <point x="212" y="-11" type="curve" smooth="yes"/>
      <point x="352" y="-11"/>
      <point x="387" y="74"/>
      <point x="387" y="208" type="curve" smooth="yes"/>
      <point x="387" y="322" type="line"/>
      <point x="614" y="322" type="line"/>
      <point x="614" y="0" type="line"/>
      <point x="704" y="0" type="line"/>
      <point x="704" y="714" type="line"/>
      <point x="614" y="714" type="line"/>
      <point x="614" y="402" type="line"/>
      <point x="387" y="402" type="line"/>
      <point x="387" y="506" type="line" smooth="yes"/>
      <point x="387" y="640"/>
      <point x="352" y="725"/>
      <point x="212" y="725" type="curve" smooth="yes"/>
      <point x="74" y="725"/>
      <point x="40" y="636"/>
      <point x="40" y="553" type="curve" smooth="yes"/>
      <point x="40" y="544" type="line"/>
      <point x="130" y="544" type="line"/>
      <point x="130" y="552" type="line" smooth="yes"/>
      <point x="130" y="583"/>
      <point x="131" y="643"/>
      <point x="212" y="643" type="curve" smooth="yes"/>
      <point x="286" y="643"/>
      <point x="297" y="578"/>
      <point x="297" y="505" type="curve" smooth="yes"/>
      <point x="297" y="209" type="line" smooth="yes"/>
      <point x="297" y="136"/>
      <point x="286" y="71"/>
      <point x="212" y="71" type="curve" smooth="yes"/>
      <point x="131" y="71"/>
      <point x="130" y="131"/>
      <point x="130" y="162" type="curve" smooth="yes"/>
      <point x="130" y="170" type="line"/>
      <point x="40" y="170" type="line"/>
      <point x="40" y="161" type="line" smooth="yes"/>
      <point x="40" y="78"/>
      <point x="74" y="-11"/>
    </contour>
  </outline>
</glyph>
<glyph name="u16B2D" format="2">
  <advance width="561"/>
  <unicode hex="16B2D"/>
  <outline>
    <contour>
      <point x="277" y="-11" type="curve" smooth="yes"/>
      <point x="436" y="-11"/>
      <point x="480" y="83"/>
      <point x="480" y="231" type="curve" smooth="yes"/>
      <point x="480" y="294" type="line"/>
      <point x="390" y="294" type="line"/>
      <point x="390" y="231" type="line" smooth="yes"/>
      <point x="390" y="143"/>
      <point x="375" y="71"/>
      <point x="282" y="71" type="curve" smooth="yes"/>
      <point x="187" y="71"/>
      <point x="170" y="134"/>
      <point x="170" y="232" type="curve" smooth="yes"/>
      <point x="170" y="634" type="line"/>
      <point x="521" y="634" type="line"/>
      <point x="521" y="714" type="line"/>
      <point x="80" y="714" type="line"/>
      <point x="80" y="233" type="line" smooth="yes"/>
      <point x="80" y="74"/>
      <point x="123" y="-11"/>
    </contour>
  </outline>
</glyph>
<glyph name="u16B30" format="2">
  <unicode hex="16B30"/>
  <outline>
    <contour>
      <point x="0" y="790" type="curve" smooth="yes"/>
      <point x="40" y="790"/>
      <point x="73" y="822"/>
      <point x="73" y="862" type="curve" smooth="yes"/>
      <point x="73" y="902"/>
      <point x="40" y="935"/>
      <point x="0" y="935" type="curve" smooth="yes"/>
      <point x="-40" y="935"/>
      <point x="-72" y="902"/>
      <point x="-72" y="862" type="curve" smooth="yes"/>
      <point x="-72" y="822"/>
      <point x="-40" y="790"/>
    </contour>
  </outline>
</glyph>
<glyph name="u16B31" format="2">
  <unicode hex="16B31"/>
  <outline>
    <contour>
      <point x="0" y="770" type="line"/>
      <point x="100" y="970" type="line"/>
      <point x="-100" y="970" type="line"/>
    </contour>
  </outline>
</glyph>
<glyph name="u16B32" format="2">
  <unicode hex="16B32"/>
  <outline>
    <contour>
      <point x="-172" y="800" type="line"/>
      <point x="173" y="800" type="line"/>
      <point x="173" y="874" type="line"/>
      <point x="-172" y="874" type="line"/>
    </contour>
  </outline>
</glyph>
<glyph name="u16B34" format="2">
  <unicode hex="16B34"/>
  <outline>
    <contour>
      <point x="-172" y="800" type="line"/>
      <point x="173" y="800" type="line"/>
      <point x="173" y="874" type="line"/>
      <point x="-172" y="874" type="line"/>
    </contour>
    <contour>
      <point x="0" y="910" type="curve" smooth="yes"/>
      <point x="40" y="910"/>
      <point x="73" y="942"/>
      <point x="73" y="982" type="curve" smooth="yes"/>
      <point x="73" y="1022"/>
      <point x="40" y="1055"/>
      <point x="0" y="1055" type="curve" smooth="yes"/>
      <point x="-40" y="1055"/>
      <point x="-72" y="1022"/>
      <point x="-72" y="982" type="curve" smooth="yes"/>
      <point x="-72" y="942"/>
      <point x="-40" y="910"/>
    </contour>
  </outline>
</glyph>
<glyph name="u16B38" format="2">
  <advance width="650"/>
  <unicode hex="16B38"/>
  <outline>
    <contour>
      <point x="286" y="170" type="line"/>
      <point x="376" y="170" type="line"/>
      <point x="376" y="634" type="line"/>
      <point x="570" y="634" type="line"/>
      <point x="570" y="714" type="line"/>
      <point x="80" y="714" type="line"/>
      <point x="80" y="634" type="line"/>
      <point x="286" y="634" type="line"/>
    </contour>
    <contour>
      <point x="322" y="-11" type="curve" smooth="yes"/>
      <point x="511" y="-11"/>
      <point x="570" y="75"/>
      <point x="570" y="223" type="curve" smooth="yes"/>
      <point x="570" y="490" type="line"/>
      <point x="480" y="490" type="line"/>
      <point x="480" y="231" type="line" smooth="yes"/>
      <point x="480" y="123"/>
      <point x="456" y="71"/>
      <point x="327" y="71" type="curve" smooth="yes"/>
      <point x="202" y="71"/>
      <point x="170" y="114"/>
      <point x="170" y="230" type="curve" smooth="yes"/>
      <point x="170" y="490" type="line"/>
      <point x="80" y="490" type="line"/>
      <point x="80" y="225" type="line" smooth="yes"/>
      <point x="80" y="66"/>
      <point x="144" y="-11"/>
    </contour>
  </outline>
</glyph>
<glyph name="u16B39" format="2">
  <advance width="397"/>
  <unicode hex="16B39"/>
  <outline>
    <contour>
      <point x="50" y="0" type="line"/>
      <point x="92" y="0" type="line" smooth="yes"/>
      <point x="145" y="0"/>
      <point x="188" y="9"/>
      <point x="220" y="27" type="curve"/>
      <point x="250" y="0" type="line"/>
      <point x="347" y="0" type="line"/>
      <point x="270" y="70" type="line"/>
      <point x="288" y="96"/>
      <point x="297" y="127"/>
      <point x="297" y="164" type="curve" smooth="yes"/>
      <point x="297" y="173" type="line" smooth="yes"/>
      <point x="297" y="257"/>
      <point x="230" y="339"/>
      <point x="102" y="339" type="curve" smooth="yes"/>
      <point x="50" y="339" type="line"/>
      <point x="50" y="264" type="line"/>
      <point x="107" y="264" type="line" smooth="yes"/>
      <point x="172" y="264"/>
      <point x="212" y="228"/>
      <point x="212" y="178" type="curve" smooth="yes"/>
      <point x="212" y="159" type="line" smooth="yes"/>
      <point x="212" y="147"/>
      <point x="210" y="137"/>
      <point x="207" y="128" type="curve"/>
      <point x="147" y="183" type="line"/>
      <point x="50" y="183" type="line"/>
      <point x="158" y="84" type="line"/>
      <point x="140" y="77"/>
      <point x="119" y="75"/>
      <point x="97" y="75" type="curve" smooth="yes"/>
      <point x="50" y="75" type="line"/>
    </contour>
  </outline>
</glyph>
<glyph name="u16B3C" format="2">
  <advance width="632"/>
  <unicode hex="16B3C"/>
  <outline>
    <contour>
      <point x="452" y="0" type="line"/>
      <point x="542" y="0" type="line"/>
      <point x="542" y="604" type="line"/>
      <point x="452" y="604" type="line"/>
      <point x="452" y="509" type="line"/>
      <point x="277" y="509" type="line" smooth="yes"/>
      <point x="149" y="509"/>
      <point x="50" y="432"/>
      <point x="50" y="299" type="curve" smooth="yes"/>
      <point x="50" y="149"/>
      <point x="149" y="90"/>
      <point x="287" y="90" type="curve" smooth="yes"/>
      <point x="452" y="90" type="line"/>
    </contour>
    <contour>
      <point x="270" y="168" type="line" smooth="yes"/>
      <point x="216" y="168"/>
      <point x="154" y="192"/>
      <point x="138" y="262" type="curve"/>
      <point x="452" y="262" type="line"/>
      <point x="452" y="168" type="line"/>
    </contour>
    <contour>
      <point x="139" y="340" type="line"/>
      <point x="155" y="398"/>
      <point x="206" y="431"/>
      <point x="260" y="431" type="curve" smooth="yes"/>
      <point x="452" y="431" type="line"/>
      <point x="452" y="340" type="line"/>
    </contour>
  </outline>
</glyph>
<glyph name="u16B3E" format="2">
  <advance width="580"/>
  <unicode hex="16B3E"/>
  <outline>
    <contour>
      <point x="440" y="0" type="line"/>
      <point x="530" y="0" type="line"/>
      <point x="530" y="265" type="line"/>
      <point x="275" y="265" type="line" smooth="yes"/>
      <point x="213" y="265"/>
      <point x="139" y="295"/>
      <point x="139" y="394" type="curve" smooth="yes"/>
      <point x="139" y="478"/>
      <point x="200" y="524"/>
      <point x="265" y="524" type="curve" smooth="yes"/>
      <point x="524" y="524" type="line"/>
      <point x="524" y="604" type="line"/>
      <point x="277" y="604" type="line" smooth="yes"/>
      <point x="149" y="604"/>
      <point x="50" y="527"/>
      <point x="50" y="394" type="curve" smooth="yes"/>
      <point x="50" y="244"/>
      <point x="149" y="185"/>
      <point x="287" y="185" type="curve" smooth="yes"/>
      <point x="440" y="185" type="line"/>
    </contour>
  </outline>
</glyph>
<glyph name="u16B3F" format="2">
  <advance width="645"/>
  <unicode hex="16B3F"/>
  <outline>
    <contour>
      <point x="250" y="0" type="line"/>
      <point x="625" y="0" type="line"/>
      <point x="625" y="80" type="line"/>
      <point x="340" y="80" type="line"/>
      <point x="340" y="604" type="line"/>
      <point x="250" y="604" type="line"/>
    </contour>
    <contour>
      <point x="123" y="245" type="curve" smooth="yes"/>
      <point x="163" y="245"/>
      <point x="195" y="278"/>
      <point x="195" y="318" type="curve" smooth="yes"/>
      <point x="195" y="358"/>
      <point x="163" y="390"/>
      <point x="123" y="390" type="curve" smooth="yes"/>
      <point x="83" y="390"/>
      <point x="50" y="358"/>
      <point x="50" y="318" type="curve" smooth="yes"/>
      <point x="50" y="278"/>
      <point x="83" y="245"/>
    </contour>
    <contour>
      <point x="468" y="245" type="curve" smooth="yes"/>
      <point x="508" y="245"/>
      <point x="540" y="278"/>
      <point x="540" y="318" type="curve" smooth="yes"/>
      <point x="540" y="358"/>
      <point x="508" y="390"/>
      <point x="468" y="390" type="curve" smooth="yes"/>
      <point x="428" y="390"/>
      <point x="395" y="358"/>
      <point x="395" y="318" type="curve" smooth="yes"/>
      <point x="395" y="278"/>
      <point x="428" y="245"/>
    </contour>
  </outline>
</glyph>
<glyph name="u16B40" format="2">
  <advance width="545"/>
  <unicode hex="16B40"/>
  <outline>
    <contour>
      <point x="422" y="290" type="curve" smooth="yes"/>
      <point x="462" y="290"/>
      <point x="495" y="322"/>
      <point x="495" y="362" type="curve" smooth="yes"/>
      <point x="495" y="402"/>
      <point x="462" y="435"/>
      <point x="422" y="435" type="curve" smooth="yes"/>
      <point x="382" y="435"/>
      <point x="350" y="402"/>
      <point x="350" y="362" type="curve" smooth="yes"/>
      <point x="350" y="322"/>
      <point x="382" y="290"/>
    </contour>
    <contour>
      <point x="122" y="111" type="curve" smooth="yes"/>
      <point x="162" y="111"/>
      <point x="195" y="143"/>
      <point x="195" y="183" type="curve" smooth="yes"/>
      <point x="195" y="223"/>
      <point x="162" y="256"/>
      <point x="122" y="256" type="curve" smooth="yes"/>
      <point x="82" y="256"/>
      <point x="50" y="223"/>
      <point x="50" y="183" type="curve" smooth="yes"/>
      <point x="50" y="143"/>
      <point x="82" y="111"/>
    </contour>
    <contour>
      <point x="122" y="469" type="curve" smooth="yes"/>
      <point x="162" y="469"/>
      <point x="195" y="501"/>
      <point x="195" y="541" type="curve" smooth="yes"/>
      <point x="195" y="581"/>
      <point x="162" y="614"/>
      <point x="122" y="614" type="curve" smooth="yes"/>
      <point x="82" y="614"/>
      <point x="50" y="581"/>
      <point x="50" y="541" type="curve" smooth="yes"/>
      <point x="50" y="501"/>
      <point x="82" y="469"/>
    </contour>
  </outline>
</glyph>
<glyph name="u16B41" format="2">
  <advance width="418"/>
  <unicode hex="16B41"/>
  <outline>
    <contour>
      <point x="238" y="0" type="line"/>
      <point x="328" y="0" type="line"/>
      <point x="328" y="714" type="line"/>
      <point x="219" y="714" type="line"/>
      <point x="80" y="539" type="line"/>
      <point x="141" y="486" type="line"/>
      <point x="238" y="618" type="line"/>
    </contour>
  </outline>
</glyph>
<glyph name="u16B42" format="2">
  <advance width="645"/>
  <unicode hex="16B42"/>
  <outline>
    <contour>
      <point x="475" y="-60" type="line"/>
      <point x="565" y="-60" type="line"/>
      <point x="565" y="444" type="line"/>
      <point x="335" y="444" type="line"/>
      <point x="335" y="714" type="line"/>
      <point x="50" y="714" type="line"/>
      <point x="50" y="634" type="line"/>
      <point x="245" y="634" type="line"/>
      <point x="245" y="444" type="line"/>
      <point x="50" y="444" type="line"/>
      <point x="50" y="364" type="line"/>
      <point x="245" y="364" type="line"/>
      <point x="245" y="0" type="line"/>
      <point x="335" y="0" type="line"/>
      <point x="335" y="364" type="line"/>
      <point x="475" y="364" type="line"/>
    </contour>
  </outline>
</glyph>
<glyph name="u16B45" format="2">
  <advance width="737"/>
  <unicode hex="16B45"/>
  <outline>
    <contour>
      <point x="299" y="-213" type="line"/>
      <point x="323" y="-213" type="line"/>
      <point x="523" y="-4" type="line"/>
      <point x="523" y="115" type="line"/>
      <point x="356" y="-71" type="line"/>
      <point x="356" y="164" type="line" smooth="yes"/>
      <point x="356" y="218"/>
      <point x="379" y="238"/>
      <point x="436" y="238" type="curve" smooth="yes"/>
      <point x="500" y="238" type="line" smooth="yes"/>
      <point x="604" y="238"/>
      <point x="657" y="307"/>
      <point x="657" y="397" type="curve" smooth="yes"/>
      <point x="657" y="696" type="line" smooth="yes"/>
      <point x="657" y="786"/>
      <point x="596" y="855"/>
      <point x="468" y="855" type="curve" smooth="yes"/>
      <point x="285" y="855" type="line" smooth="yes"/>
      <point x="147" y="855"/>
      <point x="80" y="796"/>
      <point x="80" y="696" type="curve" smooth="yes"/>
      <point x="80" y="527" type="line" smooth="yes"/>
      <point x="80" y="443"/>
      <point x="117" y="370"/>
      <point x="245" y="370" type="curve" smooth="yes"/>
      <point x="363" y="370" type="line" smooth="yes"/>
      <point x="455" y="370"/>
      <point x="501" y="427"/>
      <point x="501" y="517" type="curve" smooth="yes"/>
      <point x="501" y="597" type="line" smooth="yes"/>
      <point x="501" y="656"/>
      <point x="483" y="708"/>
      <point x="391" y="708" type="curve" smooth="yes"/>
      <point x="347" y="708" type="line" smooth="yes"/>
      <point x="255" y="708"/>
      <point x="234" y="656"/>
      <point x="234" y="597" type="curve" smooth="yes"/>
      <point x="234" y="546" type="line"/>
      <point x="320" y="546" type="line"/>
      <point x="320" y="597" type="line" smooth="yes"/>
      <point x="320" y="620"/>
      <point x="331" y="632"/>
      <point x="360" y="632" type="curve" smooth="yes"/>
      <point x="378" y="632" type="line" smooth="yes"/>
      <point x="407" y="632"/>
      <point x="418" y="620"/>
      <point x="418" y="597" type="curve" smooth="yes"/>
      <point x="418" y="532" type="line" smooth="yes"/>
      <point x="418" y="478"/>
      <point x="407" y="450"/>
      <point x="350" y="450" type="curve" smooth="yes"/>
      <point x="245" y="450" type="line" smooth="yes"/>
      <point x="180" y="450"/>
      <point x="170" y="492"/>
      <point x="170" y="542" type="curve" smooth="yes"/>
      <point x="170" y="691" type="line" smooth="yes"/>
      <point x="170" y="755"/>
      <point x="223" y="775"/>
      <point x="285" y="775" type="curve" smooth="yes"/>
      <point x="459" y="775" type="line" smooth="yes"/>
      <point x="518" y="775"/>
      <point x="567" y="745"/>
      <point x="567" y="691" type="curve" smooth="yes"/>
      <point x="567" y="412" type="line" smooth="yes"/>
      <point x="567" y="358"/>
      <point x="555" y="318"/>
      <point x="487" y="318" type="curve" smooth="yes"/>
      <point x="423" y="318" type="line" smooth="yes"/>
      <point x="319" y="318"/>
      <point x="266" y="269"/>
      <point x="266" y="179" type="curve" smooth="yes"/>
      <point x="266" y="-71" type="line"/>
      <point x="99" y="115" type="line"/>
      <point x="99" y="-4" type="line"/>
    </contour>
  </outline>
</glyph>
<glyph name="u16B53" format="2">
  <advance width="796"/>
  <unicode hex="16B53"/>
  <outline>
    <contour>
      <point x="80" y="0" type="line"/>
      <point x="170" y="0" type="line"/>
      <point x="170" y="521" type="line" smooth="yes"/>
      <point x="170" y="629"/>
      <point x="200" y="643"/>
      <point x="227" y="643" type="curve" smooth="yes"/>
      <point x="261" y="643"/>
      <point x="284" y="615"/>
      <point x="284" y="531" type="curve" smooth="yes"/>
      <point x="284" y="506"/>
      <point x="284" y="476"/>
      <point x="281" y="440" type="curve" smooth="yes"/>
      <point x="254" y="92" type="line"/>
      <point x="254" y="34" type="line"/>
      <point x="542" y="34" type="line"/>
      <point x="542" y="92" type="line"/>
      <point x="515" y="440" type="line" smooth="yes"/>
      <point x="512" y="476"/>
      <point x="512" y="506"/>
      <point x="512" y="531" type="curve" smooth="yes"/>
      <point x="512" y="615"/>
      <point x="535" y="643"/>
      <point x="569" y="643" type="curve" smooth="yes"/>
      <point x="596" y="643"/>
      <point x="626" y="629"/>
      <point x="626" y="521" type="curve" smooth="yes"/>
      <point x="626" y="0" type="line"/>
      <point x="716" y="0" type="line"/>
      <point x="716" y="521" type="line" smooth="yes"/>
      <point x="716" y="657"/>
      <point x="660" y="725"/>
      <point x="570" y="725" type="curve" smooth="yes"/>
      <point x="479" y="725"/>
      <point x="430" y="653"/>
      <point x="430" y="531" type="curve" smooth="yes"/>
      <point x="430" y="498"/>
      <point x="430" y="473"/>
      <point x="432" y="445" type="curve" smooth="yes"/>
      <point x="457" y="92" type="line"/>
      <point x="339" y="92" type="line"/>
      <point x="364" y="445" type="line" smooth="yes"/>
      <point x="366" y="473"/>
      <point x="366" y="498"/>
      <point x="366" y="531" type="curve" smooth="yes"/>
      <point x="366" y="653"/>
      <point x="317" y="725"/>
      <point x="226" y="725" type="curve" smooth="yes"/>
      <point x="136" y="725"/>
      <point x="80" y="657"/>
      <point x="80" y="521" type="curve" smooth="yes"/>
    </contour>
  </outline>
</glyph>
<glyph name="u16B54" format="2">
  <advance width="673"/>
  <unicode hex="16B54"/>
  <outline>
    <contour>
      <point x="285" y="0" type="curve" smooth="yes"/>
      <point x="363" y="0" type="line" smooth="yes"/>
      <point x="491" y="0"/>
      <point x="552" y="69"/>
      <point x="552" y="159" type="curve" smooth="yes"/>
      <point x="552" y="349" type="line"/>
      <point x="653" y="349" type="line"/>
      <point x="653" y="429" type="line"/>
      <point x="552" y="429" type="line"/>
      <point x="552" y="714" type="line"/>
      <point x="70" y="714" type="line"/>
      <point x="70" y="634" type="line"/>
      <point x="462" y="634" type="line"/>
      <point x="462" y="429" type="line"/>
      <point x="275" y="429" type="line" smooth="yes"/>
      <point x="147" y="429"/>
      <point x="80" y="352"/>
      <point x="80" y="268" type="curve" smooth="yes"/>
      <point x="80" y="159" type="line" smooth="yes"/>
      <point x="80" y="59"/>
      <point x="147" y="0"/>
    </contour>
    <contour>
      <point x="285" y="80" type="line" smooth="yes"/>
      <point x="223" y="80"/>
      <point x="170" y="110"/>
      <point x="170" y="174" type="curve" smooth="yes"/>
      <point x="170" y="253" type="line" smooth="yes"/>
      <point x="170" y="303"/>
      <point x="210" y="349"/>
      <point x="275" y="349" type="curve" smooth="yes"/>
      <point x="462" y="349" type="line"/>
      <point x="462" y="174" type="line" smooth="yes"/>
      <point x="462" y="120"/>
      <point x="413" y="80"/>
      <point x="354" y="80" type="curve" smooth="yes"/>
    </contour>
  </outline>
</glyph>
<glyph name="u16B55" format="2">
  <advance width="661"/>
  <unicode hex="16B55"/>
  <outline>
    <contour>
      <point x="207" y="0" type="curve" smooth="yes"/>
      <point x="424" y="0" type="line" smooth="yes"/>
      <point x="528" y="0"/>
      <point x="581" y="69"/>
      <point x="581" y="159" type="curve" smooth="yes"/>
      <point x="581" y="250" type="line" smooth="yes"/>
      <point x="581" y="298"/>
      <point x="560" y="340"/>
      <point x="528" y="369" type="curve"/>
      <point x="560" y="398"/>
      <point x="581" y="440"/>
      <point x="581" y="488" type="curve" smooth="yes"/>
      <point x="581" y="555" type="line" smooth="yes"/>
      <point x="581" y="645"/>
      <point x="528" y="714"/>
      <point x="424" y="714" type="curve" smooth="yes"/>
      <point x="207" y="714" type="line" smooth="yes"/>
      <point x="103" y="714"/>
      <point x="50" y="645"/>
      <point x="50" y="555" type="curve" smooth="yes"/>
      <point x="50" y="520" type="line"/>
      <point x="140" y="520" type="line"/>
      <point x="140" y="540" type="line" smooth="yes"/>
      <point x="140" y="594"/>
      <point x="163" y="634"/>
      <point x="220" y="634" type="curve" smooth="yes"/>
      <point x="411" y="634" type="line" smooth="yes"/>
      <point x="468" y="634"/>
      <point x="491" y="594"/>
      <point x="491" y="540" type="curve" smooth="yes"/>
      <point x="491" y="503" type="line" smooth="yes"/>
      <point x="491" y="450"/>
      <point x="469" y="409"/>
      <point x="415" y="409" type="curve" smooth="yes"/>
      <point x="350" y="409" type="line"/>
      <point x="350" y="470" type="line"/>
      <point x="270" y="470" type="line"/>
      <point x="270" y="254" type="line"/>
      <point x="350" y="254" type="line"/>
      <point x="350" y="329" type="line"/>
      <point x="411" y="329" type="line" smooth="yes"/>
      <point x="468" y="329"/>
      <point x="491" y="289"/>
      <point x="491" y="235" type="curve" smooth="yes"/>
      <point x="491" y="174" type="line" smooth="yes"/>
      <point x="491" y="120"/>
      <point x="468" y="80"/>
      <point x="411" y="80" type="curve" smooth="yes"/>
      <point x="220" y="80" type="line" smooth="yes"/>
      <point x="163" y="80"/>
      <point x="140" y="120"/>
      <point x="140" y="174" type="curve" smooth="yes"/>
      <point x="140" y="194" type="line"/>
      <point x="50" y="194" type="line"/>
      <point x="50" y="159" type="line" smooth="yes"/>
      <point x="50" y="69"/>
      <point x="103" y="0"/>
    </contour>
  </outline>
</glyph>
<glyph name="u16B59" format="2">
  <advance width="654"/>
  <unicode hex="16B59"/>
  <outline>
    <contour>
      <point x="90" y="0" type="line"/>
      <point x="180" y="0" type="line"/>
      <point x="180" y="323" type="line"/>
      <point x="215" y="323" type="line" smooth="yes"/>
      <point x="257" y="323"/>
      <point x="279" y="304"/>
      <point x="309" y="268" type="curve" smooth="yes"/>
      <point x="532" y="0" type="line"/>
      <point x="634" y="0" type="line"/>
      <point x="354" y="331" type="line" smooth="yes"/>
      <point x="345" y="342"/>
      <point x="332" y="352"/>
      <point x="319" y="363" type="curve"/>
      <point x="332" y="374"/>
      <point x="345" y="384"/>
      <point x="354" y="395" type="curve" smooth="yes"/>
      <point x="622" y="714" type="line"/>
      <point x="520" y="714" type="line"/>
      <point x="309" y="458" type="line" smooth="yes"/>
      <point x="279" y="422"/>
      <point x="257" y="403"/>
      <point x="215" y="403" type="curve" smooth="yes"/>
      <point x="180" y="403" type="line"/>
      <point x="180" y="714" type="line"/>
      <point x="90" y="714" type="line"/>
    </contour>
  </outline>
</glyph>
<glyph name="u16B5B" format="2">
  <advance width="825"/>
  <unicode hex="16B5B"/>
  <outline>
    <contour>
      <point x="233" y="-11" type="curve" smooth="yes"/>
      <point x="337" y="-11"/>
      <point x="375" y="64"/>
      <point x="375" y="223" type="curve" smooth="yes"/>
      <point x="375" y="344" type="line"/>
      <point x="450" y="344" type="line"/>
      <point x="450" y="223" type="line" smooth="yes"/>
      <point x="450" y="64"/>
      <point x="488" y="-11"/>
      <point x="592" y="-11" type="curve" smooth="yes"/>
      <point x="720" y="-11"/>
      <point x="745" y="73"/>
      <point x="745" y="221" type="curve" smooth="yes"/>
      <point x="745" y="714" type="line"/>
      <point x="655" y="714" type="line"/>
      <point x="655" y="221" type="line" smooth="yes"/>
      <point x="655" y="133"/>
      <point x="648" y="71"/>
      <point x="592" y="71" type="curve" smooth="yes"/>
      <point x="537" y="71"/>
      <point x="530" y="124"/>
      <point x="530" y="222" type="curve" smooth="yes"/>
      <point x="530" y="471" type="line" smooth="yes"/>
      <point x="530" y="557"/>
      <point x="513" y="650"/>
      <point x="412" y="650" type="curve" smooth="yes"/>
      <point x="311" y="650"/>
      <point x="295" y="557"/>
      <point x="295" y="471" type="curve" smooth="yes"/>
      <point x="295" y="222" type="line" smooth="yes"/>
      <point x="295" y="124"/>
      <point x="288" y="71"/>
      <point x="233" y="71" type="curve" smooth="yes"/>
      <point x="177" y="71"/>
      <point x="170" y="133"/>
      <point x="170" y="221" type="curve" smooth="yes"/>
      <point x="170" y="714" type="line"/>
      <point x="80" y="714" type="line"/>
      <point x="80" y="221" type="line" smooth="yes"/>
      <point x="80" y="73"/>
      <point x="105" y="-11"/>
    </contour>
    <contour>
      <point x="375" y="412" type="line"/>
      <point x="375" y="471" type="line" smooth="yes"/>
      <point x="375" y="554"/>
      <point x="390" y="576"/>
      <point x="413" y="576" type="curve" smooth="yes"/>
      <point x="435" y="576"/>
      <point x="450" y="553"/>
      <point x="450" y="471" type="curve" smooth="yes"/>
      <point x="450" y="412" type="line"/>
    </contour>
  </outline>
</glyph>
<glyph name="u16B5C" format="2">
  <advance width="797"/>
  <unicode hex="16B5C"/>
  <outline>
    <contour>
      <point x="152" y="-10" type="curve" smooth="yes"/>
      <point x="275" y="-10"/>
      <point x="295" y="80"/>
      <point x="295" y="155" type="curve" smooth="yes"/>
      <point x="295" y="251" type="line"/>
      <point x="502" y="377" type="line"/>
      <point x="502" y="0" type="line"/>
      <point x="592" y="0" type="line"/>
      <point x="592" y="431" type="line"/>
      <point x="656" y="469" type="line" smooth="yes"/>
      <point x="736" y="516"/>
      <point x="757" y="560"/>
      <point x="757" y="612" type="curve" smooth="yes"/>
      <point x="757" y="687"/>
      <point x="707" y="725"/>
      <point x="645" y="725" type="curve" smooth="yes"/>
      <point x="522" y="725"/>
      <point x="502" y="635"/>
      <point x="502" y="560" type="curve" smooth="yes"/>
      <point x="502" y="463" type="line"/>
      <point x="295" y="337" type="line"/>
      <point x="295" y="715" type="line"/>
      <point x="205" y="715" type="line"/>
      <point x="205" y="284" type="line"/>
      <point x="141" y="246" type="line" smooth="yes"/>
      <point x="61" y="199"/>
      <point x="40" y="155"/>
      <point x="40" y="103" type="curve" smooth="yes"/>
      <point x="40" y="28"/>
      <point x="90" y="-10"/>
    </contour>
    <contour>
      <point x="152" y="58" type="curve" smooth="yes"/>
      <point x="125" y="58"/>
      <point x="112" y="82"/>
      <point x="112" y="103" type="curve" smooth="yes"/>
      <point x="112" y="131"/>
      <point x="120" y="146"/>
      <point x="172" y="177" type="curve" smooth="yes"/>
      <point x="205" y="197" type="line"/>
      <point x="205" y="125" type="line" smooth="yes"/>
      <point x="205" y="86"/>
      <point x="186" y="58"/>
    </contour>
    <contour>
      <point x="592" y="518" type="line"/>
      <point x="592" y="590" type="line" smooth="yes"/>
      <point x="592" y="629"/>
      <point x="611" y="657"/>
      <point x="645" y="657" type="curve" smooth="yes"/>
      <point x="672" y="657"/>
      <point x="685" y="633"/>
      <point x="685" y="612" type="curve" smooth="yes"/>
      <point x="685" y="584"/>
      <point x="677" y="569"/>
      <point x="625" y="538" type="curve" smooth="yes"/>
    </contour>
  </outline>
</glyph>
<glyph name="u16B5F" format="2">
  <advance width="744"/>
  <unicode hex="16B5F"/>
  <outline>
    <contour>
      <point x="321" y="-3" type="line"/>
      <point x="422" y="-3" type="line"/>
      <point x="593" y="511" type="line"/>
      <point x="673" y="437" type="line"/>
      <point x="724" y="494" type="line"/>
      <point x="476" y="725" type="line"/>
      <point x="419" y="674" type="line"/>
      <point x="525" y="574" type="line"/>
      <point x="404" y="197" type="line" smooth="yes"/>
      <point x="396" y="173"/>
      <point x="383" y="128"/>
      <point x="373" y="87" type="curve"/>
      <point x="366" y="112"/>
      <point x="344" y="181"/>
      <point x="339" y="197" type="curve" smooth="yes"/>
      <point x="220" y="576" type="line"/>
      <point x="325" y="674" type="line"/>
      <point x="268" y="725" type="line"/>
      <point x="20" y="494" type="line"/>
      <point x="71" y="437" type="line"/>
      <point x="151" y="511" type="line"/>
    </contour>
  </outline>
</glyph>
<glyph name="u16B65" format="2">
  <advance width="574"/>
  <unicode hex="16B65"/>
  <outline>
    <contour>
      <point x="152" y="0" type="line"/>
      <point x="248" y="0" type="line"/>
      <point x="287" y="150" type="line"/>
      <point x="326" y="0" type="line"/>
      <point x="422" y="0" type="line"/>
      <point x="554" y="600" type="line"/>
      <point x="468" y="600" type="line"/>
      <point x="371" y="90" type="line"/>
      <point x="324" y="295" type="line"/>
      <point x="404" y="600" type="line"/>
      <point x="318" y="600" type="line"/>
      <point x="287" y="447" type="line"/>
      <point x="256" y="600" type="line"/>
      <point x="170" y="600" type="line"/>
      <point x="249" y="295" type="line"/>
      <point x="203" y="90" type="line"/>
      <point x="106" y="600" type="line"/>
      <point x="20" y="600" type="line"/>
    </contour>
    <contour>
      <point x="286" y="680" type="curve" smooth="yes"/>
      <point x="329" y="680"/>
      <point x="365" y="714"/>
      <point x="365" y="758" type="curve" smooth="yes"/>
      <point x="365" y="801"/>
      <point x="329" y="837"/>
      <point x="286" y="837" type="curve" smooth="yes"/>
      <point x="242" y="837"/>
      <point x="208" y="801"/>
      <point x="208" y="758" type="curve" smooth="yes"/>
      <point x="208" y="714"/>
      <point x="242" y="680"/>
    </contour>
  </outline>
</glyph>
<glyph name="u16B66" format="2">
  <advance width="690"/>
  <unicode hex="16B66"/>
  <outline>
    <contour>
      <point x="170" y="0" type="line"/>
      <point x="170" y="303" type="line" smooth="yes"/>
      <point x="170" y="411"/>
      <point x="214" y="463"/>
      <point x="343" y="463" type="curve" smooth="yes"/>
      <point x="468" y="463"/>
      <point x="520" y="420"/>
      <point x="520" y="304" type="curve" smooth="yes"/>
      <point x="520" y="0" type="line"/>
      <point x="610" y="0" type="line"/>
      <point x="610" y="309" type="line" smooth="yes"/>
      <point x="610" y="453"/>
      <point x="541" y="529"/>
      <point x="396" y="542" type="curve"/>
      <point x="396" y="634" type="line"/>
      <point x="630" y="634" type="line"/>
      <point x="630" y="714" type="line"/>
      <point x="60" y="714" type="line"/>
      <point x="60" y="634" type="line"/>
      <point x="306" y="634" type="line"/>
      <point x="306" y="543" type="line"/>
      <point x="147" y="531"/>
      <point x="80" y="447"/>
      <point x="80" y="311" type="curve" smooth="yes"/>
      <point x="80" y="0" type="line"/>
    </contour>
  </outline>
</glyph>
<glyph name="u16B67" format="2">
  <advance width="780"/>
  <unicode hex="16B67"/>
  <outline>
    <contour>
      <point x="512" y="-11" type="curve" smooth="yes"/>
      <point x="681" y="-11"/>
      <point x="700" y="103"/>
      <point x="700" y="251" type="curve" smooth="yes"/>
      <point x="700" y="463" type="line" smooth="yes"/>
      <point x="700" y="611"/>
      <point x="681" y="725"/>
      <point x="512" y="725" type="curve" smooth="yes"/>
      <point x="354" y="725"/>
      <point x="330" y="620"/>
      <point x="330" y="461" type="curve" smooth="yes"/>
      <point x="330" y="402" type="line"/>
      <point x="180" y="402" type="line"/>
      <point x="180" y="714" type="line"/>
      <point x="90" y="714" type="line"/>
      <point x="90" y="0" type="line"/>
      <point x="180" y="0" type="line"/>
      <point x="180" y="322" type="line"/>
      <point x="330" y="322" type="line"/>
      <point x="330" y="253" type="line" smooth="yes"/>
      <point x="330" y="94"/>
      <point x="354" y="-11"/>
    </contour>
    <contour>
      <point x="517" y="71" type="curve" smooth="yes"/>
      <point x="432" y="71"/>
      <point x="420" y="134"/>
      <point x="420" y="250" type="curve" smooth="yes"/>
      <point x="420" y="464" type="line" smooth="yes"/>
      <point x="420" y="580"/>
      <point x="432" y="643"/>
      <point x="517" y="643" type="curve" smooth="yes"/>
      <point x="606" y="643"/>
      <point x="610" y="571"/>
      <point x="610" y="463" type="curve" smooth="yes"/>
      <point x="610" y="251" type="line" smooth="yes"/>
      <point x="610" y="143"/>
      <point x="606" y="71"/>
    </contour>
  </outline>
</glyph>
<glyph name="u16B69" format="2">
  <advance width="610"/>
  <unicode hex="16B69"/>
  <outline>
    <contour>
      <point x="50" y="0" type="line"/>
      <point x="560" y="0" type="line"/>
      <point x="560" y="80" type="line"/>
      <point x="356" y="80" type="line"/>
      <point x="356" y="595" type="line"/>
      <point x="540" y="419" type="line"/>
      <point x="540" y="521" type="line"/>
      <point x="327" y="725" type="line"/>
      <point x="295" y="725" type="line"/>
      <point x="82" y="521" type="line"/>
      <point x="82" y="419" type="line"/>
      <point x="266" y="595" type="line"/>
      <point x="266" y="80" type="line"/>
      <point x="50" y="80" type="line"/>
    </contour>
  </outline>
</glyph>
<glyph name="u16B6C" format="2">
  <advance width="610"/>
  <unicode hex="16B6C"/>
  <outline>
    <contour>
      <point x="50" y="0" type="line"/>
      <point x="560" y="0" type="line"/>
      <point x="560" y="80" type="line"/>
      <point x="356" y="80" type="line"/>
      <point x="356" y="715" type="line"/>
      <point x="266" y="715" type="line"/>
      <point x="266" y="80" type="line"/>
      <point x="50" y="80" type="line"/>
    </contour>
    <contour>
      <point x="310" y="-211" type="curve" smooth="yes"/>
      <point x="350" y="-211"/>
      <point x="383" y="-178"/>
      <point x="383" y="-138" type="curve" smooth="yes"/>
      <point x="383" y="-98"/>
      <point x="350" y="-66"/>
      <point x="310" y="-66" type="curve" smooth="yes"/>
      <point x="270" y="-66"/>
      <point x="238" y="-98"/>
      <point x="238" y="-138" type="curve" smooth="yes"/>
      <point x="238" y="-178"/>
      <point x="270" y="-211"/>
    </contour>
  </outline>
</glyph>
<glyph name="u16B71" format="2">
  <advance width="680"/>
  <unicode hex="16B71"/>
  <outline>
    <contour>
      <point x="500" y="0" type="line"/>
      <point x="590" y="0" type="line"/>
      <point x="590" y="600" type="line"/>
      <point x="500" y="600" type="line"/>
      <point x="500" y="340" type="line"/>
      <point x="50" y="340" type="line"/>
      <point x="50" y="260" type="line"/>
      <point x="500" y="260" type="line"/>
    </contour>
  </outline>
</glyph>
<glyph name="u16B75" format="2">
  <advance width="770"/>
  <unicode hex="16B75"/>
  <outline>
    <contour>
      <point x="268" y="-11" type="curve" smooth="yes"/>
      <point x="426" y="-11"/>
      <point x="450" y="94"/>
      <point x="450" y="253" type="curve" smooth="yes"/>
      <point x="450" y="330" type="line"/>
      <point x="600" y="330" type="line"/>
      <point x="600" y="0" type="line"/>
      <point x="690" y="0" type="line"/>
      <point x="690" y="410" type="line"/>
      <point x="450" y="410" type="line"/>
      <point x="450" y="461" type="line" smooth="yes"/>
      <point x="450" y="620"/>
      <point x="426" y="725"/>
      <point x="268" y="725" type="curve" smooth="yes"/>
      <point x="110" y="725"/>
      <point x="83" y="634"/>
      <point x="80" y="500" type="curve"/>
      <point x="170" y="500" type="line"/>
      <point x="171" y="593"/>
      <point x="181" y="643"/>
      <point x="263" y="643" type="curve" smooth="yes"/>
      <point x="348" y="643"/>
      <point x="360" y="580"/>
      <point x="360" y="464" type="curve" smooth="yes"/>
      <point x="360" y="410" type="line"/>
      <point x="161" y="410" type="line"/>
      <point x="161" y="330" type="line"/>
      <point x="360" y="330" type="line"/>
      <point x="360" y="250" type="line" smooth="yes"/>
      <point x="360" y="134"/>
      <point x="348" y="71"/>
      <point x="263" y="71" type="curve" smooth="yes"/>
      <point x="183" y="71"/>
      <point x="172" y="125"/>
      <point x="170" y="214" type="curve"/>
      <point x="80" y="214" type="line"/>
      <point x="83" y="81"/>
      <point x="111" y="-11"/>
    </contour>
  </outline>
</glyph>
<glyph name="u16B76" format="2">
  <advance width="800"/>
  <unicode hex="16B76"/>
  <outline>
    <contour>
      <point x="522" y="-11" type="curve" smooth="yes"/>
      <point x="590" y="-11"/>
      <point x="649" y="42"/>
      <point x="649" y="111" type="curve" smooth="yes"/>
      <point x="649" y="180"/>
      <point x="590" y="234"/>
      <point x="522" y="234" type="curve" smooth="yes"/>
      <point x="503" y="234"/>
      <point x="486" y="230"/>
      <point x="470" y="223" type="curve"/>
      <point x="470" y="464" type="line" smooth="yes"/>
      <point x="470" y="580"/>
      <point x="482" y="643"/>
      <point x="567" y="643" type="curve" smooth="yes"/>
      <point x="649" y="643"/>
      <point x="659" y="593"/>
      <point x="660" y="500" type="curve"/>
      <point x="750" y="500" type="line"/>
      <point x="747" y="634"/>
      <point x="720" y="725"/>
      <point x="562" y="725" type="curve" smooth="yes"/>
      <point x="404" y="725"/>
      <point x="380" y="620"/>
      <point x="380" y="461" type="curve" smooth="yes"/>
      <point x="380" y="422" type="line"/>
      <point x="180" y="422" type="line"/>
      <point x="180" y="714" type="line"/>
      <point x="90" y="714" type="line"/>
      <point x="90" y="0" type="line"/>
      <point x="180" y="0" type="line"/>
      <point x="180" y="342" type="line"/>
      <point x="380" y="342" type="line"/>
      <point x="380" y="150" type="line" smooth="yes"/>
      <point x="380" y="94"/>
      <point x="405" y="-11"/>
    </contour>
    <contour>
      <point x="522" y="59" type="curve" smooth="yes"/>
      <point x="492" y="59"/>
      <point x="470" y="80"/>
      <point x="470" y="111" type="curve" smooth="yes"/>
      <point x="470" y="142"/>
      <point x="492" y="164"/>
      <point x="522" y="164" type="curve" smooth="yes"/>
      <point x="552" y="164"/>
      <point x="575" y="142"/>
      <point x="575" y="111" type="curve" smooth="yes"/>
      <point x="575" y="79"/>
      <point x="552" y="59"/>
    </contour>
  </outline>
</glyph>
<glyph name="u16B7E" format="2">
  <advance width="799"/>
  <unicode hex="16B7E"/>
  <outline>
    <contour>
      <point x="90" y="0" type="line"/>
      <point x="180" y="0" type="line"/>
      <point x="180" y="230" type="line"/>
      <point x="374" y="230" type="line"/>
      <point x="374" y="0" type="line"/>
      <point x="464" y="0" type="line"/>
      <point x="464" y="230" type="line"/>
      <point x="659" y="230" type="line"/>
      <point x="659" y="0" type="line"/>
      <point x="749" y="0" type="line"/>
      <point x="749" y="310" type="line"/>
      <point x="464" y="310" type="line"/>
      <point x="464" y="634" type="line"/>
      <point x="599" y="634" type="line"/>
      <point x="599" y="714" type="line"/>
      <point x="90" y="714" type="line"/>
    </contour>
    <contour>
      <point x="180" y="310" type="line"/>
      <point x="180" y="434" type="line"/>
      <point x="374" y="434" type="line"/>
      <point x="374" y="310" type="line"/>
    </contour>
    <contour>
      <point x="180" y="504" type="line"/>
      <point x="180" y="634" type="line"/>
      <point x="374" y="634" type="line"/>
      <point x="374" y="504" type="line"/>
    </contour>
  </outline>
</glyph>
<glyph name="u16B80" format="2">
  <advance width="850"/>
  <unicode hex="16B80"/>
  <outline>
    <contour>
      <point x="670" y="0" type="line"/>
      <point x="760" y="0" type="line"/>
      <point x="760" y="714" type="line"/>
      <point x="300" y="714" type="line"/>
      <point x="300" y="634" type="line"/>
      <point x="670" y="634" type="line"/>
    </contour>
    <contour>
      <point x="90" y="0" type="line"/>
      <point x="550" y="0" type="line"/>
      <point x="550" y="80" type="line"/>
      <point x="180" y="80" type="line"/>
      <point x="180" y="714" type="line"/>
      <point x="90" y="714" type="line"/>
    </contour>
    <contour>
      <point x="426" y="194" type="curve" smooth="yes"/>
      <point x="570" y="194" type="line"/>
      <point x="570" y="262" type="line"/>
      <point x="434" y="262" type="line" smooth="yes"/>
      <point x="383" y="262"/>
      <point x="353" y="277"/>
      <point x="353" y="303" type="curve" smooth="yes"/>
      <point x="353" y="323"/>
      <point x="363" y="347"/>
      <point x="414" y="347" type="curve" smooth="yes"/>
      <point x="570" y="347" type="line"/>
      <point x="570" y="415" type="line"/>
      <point x="414" y="415" type="line" smooth="yes"/>
      <point x="364" y="415"/>
      <point x="353" y="439"/>
      <point x="353" y="459" type="curve" smooth="yes"/>
      <point x="353" y="485"/>
      <point x="383" y="500"/>
      <point x="434" y="500" type="curve" smooth="yes"/>
      <point x="570" y="500" type="line"/>
      <point x="570" y="568" type="line"/>
      <point x="426" y="568" type="line" smooth="yes"/>
      <point x="367" y="568"/>
      <point x="279" y="554"/>
      <point x="279" y="459" type="curve" smooth="yes"/>
      <point x="279" y="415"/>
      <point x="300" y="397"/>
      <point x="320" y="380" type="curve"/>
      <point x="300" y="363"/>
      <point x="279" y="344"/>
      <point x="279" y="303" type="curve" smooth="yes"/>
      <point x="279" y="208"/>
      <point x="367" y="194"/>
    </contour>
  </outline>
</glyph>
<glyph name="u16B84" format="2">
  <advance width="788"/>
  <unicode hex="16B84"/>
  <outline>
    <contour>
      <point x="274" y="0" type="line"/>
      <point x="354" y="0" type="line"/>
      <point x="354" y="330" type="line"/>
      <point x="434" y="330" type="line"/>
      <point x="434" y="0" type="line"/>
      <point x="514" y="0" type="line"/>
      <point x="514" y="330" type="line"/>
      <point x="618" y="330" type="line"/>
      <point x="618" y="0" type="line"/>
      <point x="708" y="0" type="line"/>
      <point x="708" y="410" type="line"/>
      <point x="514" y="410" type="line"/>
      <point x="514" y="714" type="line"/>
      <point x="434" y="714" type="line"/>
      <point x="434" y="410" type="line"/>
      <point x="354" y="410" type="line"/>
      <point x="354" y="714" type="line"/>
      <point x="274" y="714" type="line"/>
      <point x="274" y="410" type="line"/>
      <point x="170" y="410" type="line"/>
      <point x="170" y="714" type="line"/>
      <point x="80" y="714" type="line"/>
      <point x="80" y="330" type="line"/>
      <point x="274" y="330" type="line"/>
    </contour>
  </outline>
</glyph>
<glyph name="u16B85" format="2">
  <advance width="837"/>
  <unicode hex="16B85"/>
  <outline>
    <contour>
      <point x="50" y="540" type="line"/>
      <point x="130" y="540" type="line"/>
      <point x="130" y="560" type="line" smooth="yes"/>
      <point x="130" y="614"/>
      <point x="153" y="634"/>
      <point x="210" y="634" type="curve" smooth="yes"/>
      <point x="627" y="634" type="line" smooth="yes"/>
      <point x="684" y="634"/>
      <point x="707" y="614"/>
      <point x="707" y="560" type="curve" smooth="yes"/>
      <point x="707" y="540" type="line"/>
      <point x="787" y="540" type="line"/>
      <point x="787" y="575" type="line" smooth="yes"/>
      <point x="787" y="665"/>
      <point x="734" y="714"/>
      <point x="630" y="714" type="curve" smooth="yes"/>
      <point x="207" y="714" type="line" smooth="yes"/>
      <point x="103" y="714"/>
      <point x="50" y="665"/>
      <point x="50" y="575" type="curve" smooth="yes"/>
    </contour>
    <contour>
      <point x="130" y="0" type="line"/>
      <point x="220" y="0" type="line"/>
      <point x="220" y="330" type="line"/>
      <point x="307" y="330" type="line"/>
      <point x="307" y="30" type="line"/>
      <point x="387" y="30" type="line"/>
      <point x="387" y="450" type="line"/>
      <point x="307" y="450" type="line"/>
      <point x="307" y="410" type="line"/>
      <point x="130" y="410" type="line"/>
    </contour>
    <contour>
      <point x="617" y="0" type="line"/>
      <point x="707" y="0" type="line"/>
      <point x="707" y="410" type="line"/>
      <point x="530" y="410" type="line"/>
      <point x="530" y="450" type="line"/>
      <point x="450" y="450" type="line"/>
      <point x="450" y="30" type="line"/>
      <point x="530" y="30" type="line"/>
      <point x="530" y="330" type="line"/>
      <point x="617" y="330" type="line"/>
    </contour>
  </outline>
</glyph>
<glyph name="u16B87" format="2">
  <advance width="766"/>
  <unicode hex="16B87"/>
  <outline>
    <contour>
      <point x="238" y="0" type="line"/>
      <point x="328" y="0" type="line"/>
      <point x="328" y="296" type="line"/>
      <point x="481" y="382" type="line"/>
      <point x="481" y="0" type="line"/>
      <point x="571" y="0" type="line"/>
      <point x="571" y="433" type="line"/>
      <point x="635" y="469" type="line" smooth="yes"/>
      <point x="716" y="514"/>
      <point x="736" y="560"/>
      <point x="736" y="612" type="curve" smooth="yes"/>
      <point x="736" y="687"/>
      <point x="686" y="725"/>
      <point x="624" y="725" type="curve" smooth="yes"/>
      <point x="501" y="725"/>
      <point x="481" y="635"/>
      <point x="481" y="560" type="curve" smooth="yes"/>
      <point x="481" y="467" type="line"/>
      <point x="328" y="379" type="line"/>
      <point x="328" y="714" type="line"/>
      <point x="219" y="714" type="line"/>
      <point x="80" y="539" type="line"/>
      <point x="141" y="486" type="line"/>
      <point x="238" y="618" type="line"/>
      <point x="238" y="327" type="line"/>
      <point x="122" y="261" type="line"/>
      <point x="153" y="198" type="line"/>
      <point x="238" y="246" type="line"/>
    </contour>
    <contour>
      <point x="571" y="519" type="line"/>
      <point x="571" y="590" type="line" smooth="yes"/>
      <point x="571" y="629"/>
      <point x="590" y="657"/>
      <point x="624" y="657" type="curve" smooth="yes"/>
      <point x="651" y="657"/>
      <point x="664" y="633"/>
      <point x="664" y="612" type="curve" smooth="yes"/>
      <point x="664" y="584"/>
      <point x="656" y="568"/>
      <point x="604" y="538" type="curve" smooth="yes"/>
    </contour>
  </outline>
</glyph>
<glyph name="u16B89" format="2">
  <advance width="788"/>
  <unicode hex="16B89"/>
  <outline>
    <contour>
      <point x="70" y="0" type="line"/>
      <point x="718" y="0" type="line"/>
      <point x="718" y="80" type="line"/>
      <point x="628" y="80" type="line"/>
      <point x="628" y="340" type="line"/>
      <point x="718" y="340" type="line"/>
      <point x="718" y="420" type="line"/>
      <point x="628" y="420" type="line"/>
      <point x="628" y="634" type="line"/>
      <point x="718" y="634" type="line"/>
      <point x="718" y="714" type="line"/>
      <point x="70" y="714" type="line"/>
      <point x="70" y="634" type="line"/>
      <point x="160" y="634" type="line"/>
      <point x="160" y="420" type="line"/>
      <point x="70" y="420" type="line"/>
      <point x="70" y="340" type="line"/>
      <point x="160" y="340" type="line"/>
      <point x="160" y="80" type="line"/>
      <point x="70" y="80" type="line"/>
    </contour>
    <contour>
      <point x="250" y="80" type="line"/>
      <point x="250" y="634" type="line"/>
      <point x="354" y="634" type="line"/>
      <point x="354" y="80" type="line"/>
    </contour>
    <contour>
      <point x="434" y="80" type="line"/>
      <point x="434" y="634" type="line"/>
      <point x="538" y="634" type="line"/>
      <point x="538" y="80" type="line"/>
    </contour>
  </outline>
</glyph>
<glyph name="u16B8C" format="2">
  <advance width="698"/>
  <unicode hex="16B8C"/>
  <outline>
    <contour>
      <point x="64" y="388" type="line"/>
      <point x="190" y="495" type="line"/>
      <point x="232" y="466"/>
      <point x="282" y="445"/>
      <point x="347" y="445" type="curve" smooth="yes"/>
      <point x="415" y="445"/>
      <point x="467" y="465"/>
      <point x="510" y="495" type="curve"/>
      <point x="635" y="388" type="line"/>
      <point x="635" y="490" type="line"/>
      <point x="570" y="546" type="line"/>
      <point x="596" y="571"/>
      <point x="619" y="598"/>
      <point x="643" y="622" type="curve"/>
      <point x="592" y="677" type="line"/>
      <point x="563" y="649"/>
      <point x="536" y="622"/>
      <point x="509" y="598" type="curve"/>
      <point x="361" y="725" type="line"/>
      <point x="339" y="725" type="line"/>
      <point x="190" y="597" type="line"/>
      <point x="161" y="624"/>
      <point x="133" y="653"/>
      <point x="107" y="677" type="curve"/>
      <point x="56" y="622" type="line"/>
      <point x="78" y="600"/>
      <point x="102" y="573"/>
      <point x="130" y="546" type="curve"/>
      <point x="64" y="490" type="line"/>
    </contour>
    <contour>
      <point x="283" y="-11" type="line"/>
      <point x="304" y="-11" type="line"/>
      <point x="304" y="391" type="line"/>
      <point x="224" y="391" type="line"/>
      <point x="224" y="137" type="line"/>
      <point x="40" y="306" type="line"/>
      <point x="40" y="204" type="line"/>
    </contour>
    <contour>
      <point x="394" y="-11" type="line"/>
      <point x="415" y="-11" type="line"/>
      <point x="658" y="204" type="line"/>
      <point x="658" y="306" type="line"/>
      <point x="474" y="137" type="line"/>
      <point x="474" y="391" type="line"/>
      <point x="394" y="391" type="line"/>
    </contour>
    <contour>
      <point x="350" y="520" type="curve" smooth="yes"/>
      <point x="314" y="520"/>
      <point x="282" y="532"/>
      <point x="253" y="549" type="curve"/>
      <point x="350" y="632" type="line"/>
      <point x="447" y="549" type="line"/>
      <point x="417" y="531"/>
      <point x="386" y="520"/>
    </contour>
  </outline>
</glyph>
